<svg width="160" height="33" viewBox="0 0 160 33" fill="none" xmlns="http://www.w3.org/2000/svg">
<g id="Logo" clip-path="url(#clip0_4871_420)">
<path id="t" d="M159.716 24.7494V28.7089H156.395C152.85 28.5975 150.957 26.6836 150.957 23.0887V14.0456H148.638V10.5722H150.957V6.68359H155.858V10.5317H159.605V13.995H155.858V22.6026C155.858 23.7671 156.091 24.6988 157.883 24.6988L159.716 24.7494Z" fill="white"/>
<path id="e" d="M129.104 19.6752V19.4119C129.051 18.2472 129.228 17.0835 129.626 15.9875C130.023 14.8915 130.633 13.8847 131.421 13.0248C132.208 12.165 133.158 11.469 134.214 10.9768C135.271 10.4845 136.415 10.2057 137.58 10.1562C137.813 10.1562 138.056 10.1562 138.289 10.1562C142.917 10.1562 146.977 12.8499 146.977 19.2702V20.6373H134.117C134.248 23.5942 135.848 25.2651 138.542 25.2651C140.861 25.2651 141.944 24.2525 142.258 22.774H146.886C146.319 26.6322 143.241 28.779 138.37 28.779C133.023 28.7385 129.104 25.3563 129.104 19.6752ZM142.157 17.5385C141.985 14.8449 140.628 13.5487 138.268 13.5487C135.909 13.5487 134.552 15.0069 134.218 17.5385H142.157Z" fill="white"/>
<path id="e_2" d="M109.093 19.6752V19.4119C109.04 18.2489 109.217 17.0868 109.613 15.992C110.009 14.8973 110.618 13.8913 111.403 13.0318C112.188 12.1722 113.135 11.4758 114.19 10.9824C115.244 10.489 116.386 10.2083 117.549 10.1562C117.782 10.1562 118.025 10.1562 118.258 10.1562C122.886 10.1562 126.956 12.8499 126.956 19.2702V20.6373H114.106C114.237 23.5942 115.837 25.2651 118.531 25.2651C120.85 25.2651 121.934 24.2525 122.248 22.774H126.875C126.298 26.6322 123.22 28.779 118.349 28.779C113.012 28.7385 109.093 25.3563 109.093 19.6752ZM122.146 17.5385C121.974 14.8449 120.617 13.5487 118.258 13.5487C115.898 13.5487 114.582 15.0474 114.207 17.5284L122.146 17.5385Z" fill="white"/>
<path id="w" d="M81.0127 10.5312H86.1975L89.3671 22.5414L92.8405 10.5312H96.8912L100.03 22.5414L103.372 10.5312H108.122L102.491 28.3743H97.6304L94.5924 17.1743L91.3418 28.3743H86.4203L81.0127 10.5312Z" fill="white"/>
<path id="s" d="M64.5371 22.7653H69.165C69.3776 24.3754 70.1776 25.2969 72.3042 25.2969C74.208 25.2969 75.089 24.5779 75.089 23.3526C75.089 22.1273 74.0764 21.6109 71.484 21.2463C66.7346 20.5273 64.9017 19.1602 64.9017 15.6767C64.9017 11.9602 68.3042 10.1172 71.9903 10.1172C75.9498 10.1172 78.9371 11.5552 79.3624 15.6564H74.7953C74.7662 15.3394 74.6745 15.0312 74.5256 14.7498C74.3767 14.4684 74.1735 14.2193 73.9277 14.0168C73.682 13.8144 73.3985 13.6626 73.0938 13.5704C72.7891 13.4781 72.4691 13.4471 72.1523 13.4792H72.0004C70.4004 13.4792 69.4688 14.2286 69.4688 15.3223C69.4688 16.4159 70.3295 16.8919 72.9422 17.2666C77.3776 17.9349 79.8586 19.059 79.8586 22.8767C79.8586 26.6944 77.0536 28.74 72.3548 28.74C67.6561 28.74 64.6688 26.6235 64.5371 22.7653Z" fill="white"/>
<path id="n" d="M44.8711 10.5316H49.7724V13.3569C50.3248 12.3199 51.1633 11.4633 52.1884 10.8888C53.2134 10.3144 54.3817 10.0463 55.5546 10.1164C59.0281 10.1164 61.5496 12.2329 61.5496 17.0632V28.4151H56.7091V17.7721C56.7091 15.3518 55.7673 14.1974 53.58 14.1974C53.1176 14.1572 52.6519 14.2086 52.2095 14.3488C51.7672 14.489 51.3568 14.7152 51.0021 15.0145C50.6474 15.3137 50.3553 15.68 50.1425 16.0924C49.9297 16.5048 49.8005 16.9552 49.7622 17.4177C49.7369 17.633 49.7369 17.8505 49.7622 18.0658V28.3746H44.8711V10.5316Z" fill="white"/>
<path id="i" d="M35.4128 6.04502C35.395 5.55634 35.5226 5.07339 35.7795 4.65729C36.0364 4.2412 36.4109 3.91068 36.8558 3.70758C37.3006 3.50448 37.7957 3.43793 38.2783 3.51637C38.761 3.5948 39.2096 3.81469 39.5672 4.14819C39.9248 4.48169 40.1754 4.91381 40.2873 5.38983C40.3992 5.86585 40.3674 6.36438 40.1958 6.82228C40.0242 7.28019 39.7206 7.67688 39.3234 7.96215C38.9263 8.24741 38.4534 8.40841 37.9647 8.42477H37.8735C37.5702 8.44397 37.2661 8.40309 36.9786 8.30447C36.6911 8.20586 36.4259 8.05146 36.1982 7.85012C35.9705 7.64878 35.7848 7.40447 35.6518 7.1312C35.5187 6.85793 35.4409 6.56108 35.4229 6.25768C35.4145 6.18712 35.4111 6.11606 35.4128 6.04502ZM35.4128 10.5311H40.3647V28.3741H35.433L35.4128 10.5311Z" fill="white"/>
<path id="F" d="M16.749 3.99023H32.4047V8.31428H22.2781V14.7649H30.2984V18.9269H22.268V28.375H16.749V3.99023Z" fill="white"/>
<path id="{" d="M7.30127 11.9696C7.30127 13.4987 7.30127 15.362 5.19494 16.1215C7.3519 16.8608 7.30127 18.4304 7.30127 20.0709V26.1468C7.30127 27.3013 7.76709 28 8.59747 28.1722C8.77993 28.2337 8.97216 28.2612 9.16456 28.2532H11.1899V32.3038H7.8481C4.28355 32.3038 2.31899 30.2785 2.31899 26.5215V19.3316C2.29371 18.9625 2.13095 18.6163 1.86286 18.3613C1.59476 18.1064 1.24081 17.9612 0.870886 17.9544H0V14.4H0.870886C1.24819 14.395 1.60909 14.245 1.87872 13.981C2.14835 13.717 2.30601 13.3594 2.31899 12.9823V5.69114C2.31899 1.99494 4.24304 0 7.8481 0H11.2203V3.98987H9.19494C9.00231 3.99043 8.81095 4.02118 8.62785 4.08101C7.79747 4.29367 7.33165 4.98228 7.33165 6.10633L7.30127 11.9696Z" fill="white"/>
</g>
<defs>
<clipPath id="clip0_4871_420">
<rect width="160" height="32.4051" fill="white"/>
</clipPath>
</defs>
</svg>
